<?xml version="1.0" encoding="utf-8"?>
<!-- Generator: Adobe Illustrator 23.0.1, SVG Export Plug-In . SVG Version: 6.00 Build 0)  -->
<svg version="1.1" id="Layer_1" xmlns="http://www.w3.org/2000/svg" xmlns:xlink="http://www.w3.org/1999/xlink" x="0px" y="0px"
	 viewBox="0 0 253 19" style="enable-background:new 0 0 253 19;" xml:space="preserve">
<style type="text/css">
	.st0{clip-path:url(#SVGID_2_);}
	.st1{clip-path:url(#SVGID_4_);fill:#231F20;}
	.st2{clip-path:url(#SVGID_6_);}
	.st3{clip-path:url(#SVGID_8_);fill:#231F20;}
	.st4{clip-path:url(#SVGID_10_);}
	.st5{clip-path:url(#SVGID_12_);fill:#231F20;}
	.st6{clip-path:url(#SVGID_14_);}
	.st7{clip-path:url(#SVGID_16_);fill:#231F20;}
	.st8{clip-path:url(#SVGID_18_);}
	.st9{clip-path:url(#SVGID_20_);fill:#231F20;}
	.st10{clip-path:url(#SVGID_22_);}
	.st11{clip-path:url(#SVGID_24_);fill:#231F20;}
	.st12{clip-path:url(#SVGID_26_);}
	.st13{clip-path:url(#SVGID_28_);fill:#231F20;}
	.st14{clip-path:url(#SVGID_30_);}
	.st15{clip-path:url(#SVGID_32_);fill:#0071BB;}
	.st16{clip-path:url(#SVGID_34_);}
	.st17{clip-path:url(#SVGID_36_);fill:#231F20;}
	.st18{clip-path:url(#SVGID_38_);}
	.st19{clip-path:url(#SVGID_40_);fill:#231F20;}
	.st20{clip-path:url(#SVGID_42_);}
	.st21{clip-path:url(#SVGID_44_);fill:#231F20;}
	.st22{clip-path:url(#SVGID_46_);}
	.st23{clip-path:url(#SVGID_48_);fill:#231F20;}
	.st24{clip-path:url(#SVGID_50_);}
	.st25{clip-path:url(#SVGID_52_);fill:#231F20;}
	.st26{clip-path:url(#SVGID_54_);}
	.st27{clip-path:url(#SVGID_56_);fill:#231F20;}
	.st28{clip-path:url(#SVGID_58_);}
	.st29{clip-path:url(#SVGID_60_);fill:#231F20;}
	.st30{clip-path:url(#SVGID_62_);}
	.st31{clip-path:url(#SVGID_64_);fill:#231F20;}
	.st32{clip-path:url(#SVGID_66_);}
	.st33{clip-path:url(#SVGID_68_);fill:#231F20;}
	.st34{clip-path:url(#SVGID_70_);}
	.st35{clip-path:url(#SVGID_72_);fill:#231F20;}
	.st36{clip-path:url(#SVGID_74_);}
	.st37{clip-path:url(#SVGID_76_);fill:#231F20;}
	.st38{clip-path:url(#SVGID_78_);}
	.st39{clip-path:url(#SVGID_80_);fill:#231F20;}
	.st40{clip-path:url(#SVGID_82_);}
	.st41{clip-path:url(#SVGID_84_);fill:#0071BB;}
</style>
<g>
	<defs>
		<path id="SVGID_1_" d="M200.9,9.5c0-4,2.6-7.1,5.8-7.1c1.2,0,2.2,0.4,2.9,0.8l0.6-0.9h0.3v4.3h-0.4c-0.8-2.4-1.9-3.7-3.6-3.7
			c-2,0-3.8,2-3.8,6.4c0,4.2,2.2,5.9,4.1,5.9c2,0,3.2-1.5,3.9-3.1l0.4,0.2c-0.7,1.9-2.2,3.8-4.7,3.8
			C203.2,16.2,200.9,13.5,200.9,9.5"/>
	</defs>
	<clipPath id="SVGID_2_">
		<use xlink:href="#SVGID_1_"  style="overflow:visible;"/>
	</clipPath>
	<g class="st0">
		<defs>
			<rect id="SVGID_3_" x="-54" y="-440" width="320" height="568"/>
		</defs>
		<clipPath id="SVGID_4_">
			<use xlink:href="#SVGID_3_"  style="overflow:visible;"/>
		</clipPath>
		<rect x="195.9" y="-2.6" class="st1" width="20.2" height="23.8"/>
	</g>
</g>
<g>
	<defs>
		<path id="SVGID_5_" d="M212.2,9.5c0-4,2.6-7.1,5.8-7.1c1.2,0,2.2,0.4,2.9,0.8l0.6-0.9h0.3v4.3h-0.4c-0.8-2.4-1.9-3.7-3.6-3.7
			c-2,0-3.8,2-3.8,6.4c0,4.2,2.2,5.9,4.1,5.9c2,0,3.2-1.5,3.9-3.1l0.4,0.2c-0.7,1.9-2.2,3.8-4.7,3.8
			C214.5,16.2,212.2,13.5,212.2,9.5"/>
	</defs>
	<clipPath id="SVGID_6_">
		<use xlink:href="#SVGID_5_"  style="overflow:visible;"/>
	</clipPath>
	<g class="st2">
		<defs>
			<rect id="SVGID_7_" x="-54" y="-440" width="320" height="568"/>
		</defs>
		<clipPath id="SVGID_8_">
			<use xlink:href="#SVGID_7_"  style="overflow:visible;"/>
		</clipPath>
		<rect x="207.2" y="-2.6" class="st3" width="20.2" height="23.8"/>
	</g>
</g>
<g>
	<defs>
		<path id="SVGID_9_" d="M223.1,15.5c1.5-0.1,1.8-0.4,1.8-1.1V4.4c0-0.7-0.4-1-1.8-1.1V2.8h9.2l0.1,3.9l-0.4,0
			c-0.7-2.4-1.3-3.4-3.2-3.4h-2.3v5.5h1c1.3,0,1.9-0.3,2.3-2.4h0.3v5.4h-0.3c-0.4-2.1-1-2.4-2.3-2.4h-1v6h2.3c2.2,0,3-1.2,3.7-3.7
			l0.4,0l-0.1,4.2h-9.7V15.5z"/>
	</defs>
	<clipPath id="SVGID_10_">
		<use xlink:href="#SVGID_9_"  style="overflow:visible;"/>
	</clipPath>
	<g class="st4">
		<defs>
			<rect id="SVGID_11_" x="-54" y="-440" width="320" height="568"/>
		</defs>
		<clipPath id="SVGID_12_">
			<use xlink:href="#SVGID_11_"  style="overflow:visible;"/>
		</clipPath>
		<rect x="218.1" y="-2.2" class="st5" width="19.8" height="23.1"/>
	</g>
</g>
<g>
	<defs>
		<path id="SVGID_13_" d="M234.4,11.8h0.4c0.9,2.4,2,3.8,3.6,3.8c1.7,0,2.5-1.4,2.5-2.5c0-1.6-1-2.2-3-3.1c-1.6-0.6-3.2-1.2-3.2-3.6
			c0-2.5,1.7-4,3.8-4c1,0,1.8,0.3,2.3,0.5l0.5-0.6h0.3v4h-0.4c-0.7-2.1-1.7-3.4-3-3.4C237,3,236,3.9,236,5.4c0,1.6,1,2.1,2.9,2.8
			c1.6,0.6,3.2,1.2,3.2,3.7c0,2-1,4.3-3.8,4.3c-0.9,0-1.9-0.3-2.6-0.7l-0.9,0.8h-0.3V11.8z"/>
	</defs>
	<clipPath id="SVGID_14_">
		<use xlink:href="#SVGID_13_"  style="overflow:visible;"/>
	</clipPath>
	<g class="st6">
		<defs>
			<rect id="SVGID_15_" x="-54" y="-440" width="320" height="568"/>
		</defs>
		<clipPath id="SVGID_16_">
			<use xlink:href="#SVGID_15_"  style="overflow:visible;"/>
		</clipPath>
		<rect x="229.4" y="-2.6" class="st7" width="17.7" height="23.9"/>
	</g>
</g>
<g>
	<defs>
		<path id="SVGID_17_" d="M243,11.8h0.4c0.9,2.4,2,3.8,3.6,3.8c1.7,0,2.5-1.4,2.5-2.5c0-1.6-1-2.2-3-3.1c-1.6-0.6-3.2-1.2-3.2-3.6
			c0-2.5,1.7-4,3.8-4c1,0,1.8,0.3,2.3,0.5l0.5-0.6h0.3v4h-0.4c-0.7-2.1-1.7-3.4-3-3.4c-1.2,0-2.1,0.9-2.1,2.4c0,1.6,1,2.1,2.9,2.8
			c1.6,0.6,3.2,1.2,3.2,3.7c0,2-1,4.3-3.8,4.3c-0.9,0-1.9-0.3-2.6-0.7l-0.9,0.8H243V11.8z"/>
	</defs>
	<clipPath id="SVGID_18_">
		<use xlink:href="#SVGID_17_"  style="overflow:visible;"/>
	</clipPath>
	<g class="st8">
		<defs>
			<rect id="SVGID_19_" x="-54" y="-440" width="320" height="568"/>
		</defs>
		<clipPath id="SVGID_20_">
			<use xlink:href="#SVGID_19_"  style="overflow:visible;"/>
		</clipPath>
		<rect x="238" y="-2.6" class="st9" width="17.7" height="23.9"/>
	</g>
</g>
<g>
	<defs>
		<path id="SVGID_21_" d="M26.2,1.5V6h-0.4c-1-2.9-1.9-4.1-3-4.1h-0.3v12.7c0,0.9,0.3,1.5,1.7,1.5v0.3h-5.8v-0.3
			c1.3-0.1,1.7-0.6,1.7-1.5V1.9h-0.3c-1.2,0-2,1.2-3,4.1h-0.4V1.5H26.2z"/>
	</defs>
	<clipPath id="SVGID_22_">
		<use xlink:href="#SVGID_21_"  style="overflow:visible;"/>
	</clipPath>
	<g class="st10">
		<defs>
			<rect id="SVGID_23_" x="-54" y="-440" width="320" height="568"/>
		</defs>
		<clipPath id="SVGID_24_">
			<use xlink:href="#SVGID_23_"  style="overflow:visible;"/>
		</clipPath>
		<rect x="11.5" y="-3.5" class="st11" width="19.7" height="25"/>
	</g>
</g>
<g>
	<defs>
		<path id="SVGID_25_" d="M26.9,16.2c1.3-0.1,1.5-0.6,1.5-1.5V3.2c0-0.9-0.3-1.5-1.5-1.5V1.5h5.3v0.3c-1,0.1-1.4,0.6-1.4,1.5v5.2H35
			V3.2c0-1-0.4-1.5-1.4-1.5V1.5h5.3v0.3c-1.3,0.1-1.5,0.6-1.5,1.5v11.4c0,0.9,0.2,1.5,1.5,1.5v0.3h-5.3v-0.3c1-0.1,1.4-0.5,1.4-1.5
			V8.9h-4.1v5.7c0,1,0.3,1.5,1.4,1.5v0.3h-5.3V16.2z"/>
	</defs>
	<clipPath id="SVGID_26_">
		<use xlink:href="#SVGID_25_"  style="overflow:visible;"/>
	</clipPath>
	<g class="st12">
		<defs>
			<rect id="SVGID_27_" x="-54" y="-440" width="320" height="568"/>
		</defs>
		<clipPath id="SVGID_28_">
			<use xlink:href="#SVGID_27_"  style="overflow:visible;"/>
		</clipPath>
		<rect x="21.9" y="-3.5" class="st13" width="22" height="25"/>
	</g>
</g>
<g>
	<defs>
		<polygon id="SVGID_29_" points="13,1.5 2,1.5 5.6,9 2,16.5 13,16.5 		"/>
	</defs>
	<clipPath id="SVGID_30_">
		<use xlink:href="#SVGID_29_"  style="overflow:visible;"/>
	</clipPath>
	<g class="st14">
		<defs>
			<rect id="SVGID_31_" x="-54" y="-440" width="320" height="568"/>
		</defs>
		<clipPath id="SVGID_32_">
			<use xlink:href="#SVGID_31_"  style="overflow:visible;"/>
		</clipPath>
		<rect x="-3" y="-3.5" class="st15" width="21" height="25"/>
	</g>
</g>
<g>
	<defs>
		<path id="SVGID_33_" d="M118.9,15.5c1.5-0.1,1.8-0.4,1.8-1.1V4.4c0-0.7-0.4-1-1.8-1.1V2.8h4.8c4.1,0,6.2,2.7,6.2,6.3
			c0,3.5-1.8,6.8-6,6.8h-5V15.5z M123.5,15.4c3.5,0,4.5-1.8,4.5-6.2c0-4.4-1.5-5.9-4.6-5.9h-1.2v12.1H123.5z"/>
	</defs>
	<clipPath id="SVGID_34_">
		<use xlink:href="#SVGID_33_"  style="overflow:visible;"/>
	</clipPath>
	<g class="st16">
		<defs>
			<rect id="SVGID_35_" x="-54" y="-440" width="320" height="568"/>
		</defs>
		<clipPath id="SVGID_36_">
			<use xlink:href="#SVGID_35_"  style="overflow:visible;"/>
		</clipPath>
		<rect x="113.9" y="-2.2" class="st17" width="21" height="23.1"/>
	</g>
</g>
<g>
	<defs>
		<path id="SVGID_37_" d="M131.1,15.5c1.5-0.1,1.8-0.4,1.8-1.1V4.4c0-0.7-0.4-1-1.8-1.1V2.8h5.3v0.4c-1.5,0.1-1.8,0.4-1.8,1.1v10.1
			c0,0.7,0.4,1,1.8,1.1V16h-5.3V15.5z"/>
	</defs>
	<clipPath id="SVGID_38_">
		<use xlink:href="#SVGID_37_"  style="overflow:visible;"/>
	</clipPath>
	<g class="st18">
		<defs>
			<rect id="SVGID_39_" x="-54" y="-440" width="320" height="568"/>
		</defs>
		<clipPath id="SVGID_40_">
			<use xlink:href="#SVGID_39_"  style="overflow:visible;"/>
		</clipPath>
		<rect x="126.1" y="-2.2" class="st19" width="15.3" height="23.1"/>
	</g>
</g>
<g>
	<defs>
		<path id="SVGID_41_" d="M137.5,9.4c0-4.1,2.8-6.9,5.9-6.9c1.2,0,2.2,0.3,2.8,0.7l0.6-0.8h0.3v4h-0.4c-0.7-2.3-2-3.4-3.6-3.4
			c-1.9,0-3.9,1.8-3.9,6.4c0,4.5,2.1,6.4,4,6.4c1.1,0,1.9-0.3,2.4-0.8v-3.5c0-0.7-0.4-1.1-1.8-1.2V9.8h4.6v0.4
			c-1.1,0.1-1.2,0.3-1.2,1.2v3.7c-1.1,0.7-2.7,1.1-3.8,1.1C140.4,16.2,137.5,13.9,137.5,9.4"/>
	</defs>
	<clipPath id="SVGID_42_">
		<use xlink:href="#SVGID_41_"  style="overflow:visible;"/>
	</clipPath>
	<g class="st20">
		<defs>
			<rect id="SVGID_43_" x="-54" y="-440" width="320" height="568"/>
		</defs>
		<clipPath id="SVGID_44_">
			<use xlink:href="#SVGID_43_"  style="overflow:visible;"/>
		</clipPath>
		<rect x="132.5" y="-2.6" class="st21" width="21" height="23.8"/>
	</g>
</g>
<g>
	<defs>
		<path id="SVGID_45_" d="M149.7,15.5c1.5-0.1,1.8-0.4,1.8-1.1V4.4c0-0.7-0.4-1-1.8-1.1V2.8h5.3v0.4c-1.5,0.1-1.8,0.4-1.8,1.1v10.1
			c0,0.7,0.4,1,1.8,1.1V16h-5.3V15.5z"/>
	</defs>
	<clipPath id="SVGID_46_">
		<use xlink:href="#SVGID_45_"  style="overflow:visible;"/>
	</clipPath>
	<g class="st22">
		<defs>
			<rect id="SVGID_47_" x="-54" y="-440" width="320" height="568"/>
		</defs>
		<clipPath id="SVGID_48_">
			<use xlink:href="#SVGID_47_"  style="overflow:visible;"/>
		</clipPath>
		<rect x="144.7" y="-2.2" class="st23" width="15.3" height="23.1"/>
	</g>
</g>
<g>
	<defs>
		<path id="SVGID_49_" d="M158.2,15.5c1.5-0.1,1.9-0.4,1.9-1.1V3.4h-0.8c-1.4,0-2.1,1.1-2.9,3.5l-0.4,0l0.1-4h9.7l0.1,4l-0.4,0
			c-0.7-2.2-1.5-3.5-2.9-3.5h-0.8v11.1c0,0.7,0.5,1,1.9,1.1V16h-5.5V15.5z"/>
	</defs>
	<clipPath id="SVGID_50_">
		<use xlink:href="#SVGID_49_"  style="overflow:visible;"/>
	</clipPath>
	<g class="st24">
		<defs>
			<rect id="SVGID_51_" x="-54" y="-440" width="320" height="568"/>
		</defs>
		<clipPath id="SVGID_52_">
			<use xlink:href="#SVGID_51_"  style="overflow:visible;"/>
		</clipPath>
		<rect x="151" y="-2.2" class="st25" width="19.9" height="23.1"/>
	</g>
</g>
<g>
	<defs>
		<path id="SVGID_53_" d="M168.3,12.6c-0.7,2.1-0.5,2.6,1,2.9v0.4h-3.7v-0.4c1.1-0.3,1.6-1.1,2.2-3l3.5-10.1h0.6l3.5,11.2
			c0.4,1.2,0.7,1.6,2,1.8v0.4h-5v-0.4c1.5-0.1,1.8-0.4,1.4-1.5l-0.9-3h-3.9L168.3,12.6z M171,4.8L171,4.8l-1.9,5.5h3.5L171,4.8z"/>
	</defs>
	<clipPath id="SVGID_54_">
		<use xlink:href="#SVGID_53_"  style="overflow:visible;"/>
	</clipPath>
	<g class="st26">
		<defs>
			<rect id="SVGID_55_" x="-54" y="-440" width="320" height="568"/>
		</defs>
		<clipPath id="SVGID_56_">
			<use xlink:href="#SVGID_55_"  style="overflow:visible;"/>
		</clipPath>
		<rect x="160.6" y="-2.6" class="st27" width="21.8" height="23.5"/>
	</g>
</g>
<g>
	<defs>
		<path id="SVGID_57_" d="M177.3,15.5c1.5-0.1,1.8-0.4,1.8-1.1V4.4c0-0.7-0.4-1-1.8-1.1V2.8h5.2v0.4c-1.5,0.1-1.8,0.4-1.8,1.1v11.1
			h1.7c2.2,0,3-0.9,3.8-3.7l0.4,0l-0.2,4.3h-9.1V15.5z"/>
	</defs>
	<clipPath id="SVGID_58_">
		<use xlink:href="#SVGID_57_"  style="overflow:visible;"/>
	</clipPath>
	<g class="st28">
		<defs>
			<rect id="SVGID_59_" x="-54" y="-440" width="320" height="568"/>
		</defs>
		<clipPath id="SVGID_60_">
			<use xlink:href="#SVGID_59_"  style="overflow:visible;"/>
		</clipPath>
		<rect x="172.3" y="-2.2" class="st29" width="19.3" height="23.1"/>
	</g>
</g>
<g>
	<defs>
		<path id="SVGID_61_" d="M191.9,12.6c-0.7,2.1-0.5,2.6,1,2.9v0.4h-3.7v-0.4c1.1-0.3,1.6-1.1,2.2-3l3.5-10.1h0.6l3.5,11.2
			c0.4,1.2,0.7,1.6,2,1.8v0.4h-5v-0.4c1.5-0.1,1.8-0.4,1.4-1.5l-0.9-3h-3.9L191.9,12.6z M194.6,4.8L194.6,4.8l-1.9,5.5h3.5
			L194.6,4.8z"/>
	</defs>
	<clipPath id="SVGID_62_">
		<use xlink:href="#SVGID_61_"  style="overflow:visible;"/>
	</clipPath>
	<g class="st30">
		<defs>
			<rect id="SVGID_63_" x="-54" y="-440" width="320" height="568"/>
		</defs>
		<clipPath id="SVGID_64_">
			<use xlink:href="#SVGID_63_"  style="overflow:visible;"/>
		</clipPath>
		<rect x="184.1" y="-2.6" class="st31" width="21.8" height="23.5"/>
	</g>
</g>
<g>
	<defs>
		<path id="SVGID_65_" d="M53.6,11.4H54c1.6,3.6,2.6,4.9,3.9,4.9S60,15,60,13.7c0-2.3-1.6-3.1-3.1-3.9c-1.6-0.8-3.1-1.7-3.1-4.1
			c0-2.8,1.9-4.5,4.1-4.5c0.9,0,2,0.3,2.5,0.6L60.9,1h0.3v4.9h-0.4c-1.3-3.5-2.2-4.4-3.2-4.4c-1,0-2,0.8-2,2.5c0,2,1.4,2.7,2.9,3.4
			c1.6,0.8,3.2,1.7,3.2,4.4c0,2.2-1.3,4.8-4.1,4.8c-0.9,0-2.3-0.4-3-0.9l-0.6,1h-0.3V11.4z"/>
	</defs>
	<clipPath id="SVGID_66_">
		<use xlink:href="#SVGID_65_"  style="overflow:visible;"/>
	</clipPath>
	<g class="st32">
		<defs>
			<rect id="SVGID_67_" x="-54" y="-440" width="320" height="568"/>
		</defs>
		<clipPath id="SVGID_68_">
			<use xlink:href="#SVGID_67_"  style="overflow:visible;"/>
		</clipPath>
		<rect x="48.6" y="-4" class="st33" width="18" height="25.8"/>
	</g>
</g>
<g>
	<defs>
		<path id="SVGID_69_" d="M72.4,1.5V6h-0.4c-1-2.9-1.9-4.1-3-4.1h-0.3v12.7c0,0.9,0.3,1.5,1.7,1.5v0.3h-5.8v-0.3
			c1.3-0.1,1.7-0.6,1.7-1.5V1.9h-0.3c-1.2,0-2,1.2-3,4.1h-0.4V1.5H72.4z"/>
	</defs>
	<clipPath id="SVGID_70_">
		<use xlink:href="#SVGID_69_"  style="overflow:visible;"/>
	</clipPath>
	<g class="st34">
		<defs>
			<rect id="SVGID_71_" x="-54" y="-440" width="320" height="568"/>
		</defs>
		<clipPath id="SVGID_72_">
			<use xlink:href="#SVGID_71_"  style="overflow:visible;"/>
		</clipPath>
		<rect x="57.7" y="-3.5" class="st35" width="19.7" height="25"/>
	</g>
</g>
<g>
	<defs>
		<path id="SVGID_73_" d="M87.2,8.9h-0.9V2H87c1.9,0,2.4,1.3,2.4,3.3C89.4,7.4,89,8.9,87.2,8.9z M74,10.9c0,0,1.6-6.7,1.6-6.7h0.1
			c0,0,1.7,6.7,1.6,6.7H74z M91.7,13c-0.1-2.3-0.8-3.7-3-3.9V9.1c2.4-0.5,3.2-2,3.2-3.8c0-2.1-1.1-3.6-4.3-3.6h-5.4v0.3
			c1.3,0.1,1.5,0.6,1.5,1.5v11.4c0,0.9-0.4,1.5-1.4,1.5c-0.9,0-1.3-0.6-1.8-2.2L77.5,1.5h-1.6l-2.8,11.3c-0.7,2.8-1.2,3.2-2.2,3.5
			v0.3h3.8v-0.3c-1.4-0.3-1.8-0.8-1-3.7l0.3-1.3h3.6l0.8,3.1c0.3,1.3,0.1,1.7-1.3,1.8v0.3h10.7v-0.3c-1-0.1-1.4-0.6-1.4-1.5V9.3H87
			c1.7,0,2,0.5,2.2,2.6l0.1,2c0.1,2,0.4,2.8,2.5,2.8c0.5,0,1.1-0.1,1.6-0.3v-0.2C92.2,16.2,91.8,15.3,91.7,13z"/>
	</defs>
	<clipPath id="SVGID_74_">
		<use xlink:href="#SVGID_73_"  style="overflow:visible;"/>
	</clipPath>
	<g class="st36">
		<defs>
			<rect id="SVGID_75_" x="-54" y="-440" width="320" height="568"/>
		</defs>
		<clipPath id="SVGID_76_">
			<use xlink:href="#SVGID_75_"  style="overflow:visible;"/>
		</clipPath>
		<rect x="65.9" y="-3.5" class="st37" width="32.6" height="25.3"/>
	</g>
</g>
<g>
	<defs>
		<path id="SVGID_77_" d="M39.6,16.2c1.3-0.1,1.5-0.6,1.5-1.5V3.3c0-0.9-0.3-1.5-1.5-1.5V1.5h9.3l0,4.5h-0.4
			c-0.9-2.4-1.4-4.1-3.6-4.1h-1.3v6.7H44c1.1,0,1.8-0.5,2.3-2.9h0.3v6.2h-0.3C45.8,9.5,45.1,9,44,9h-0.4v7h1.4c2.3,0,3.1-1.5,4-4.7
			l0.4,0l-0.1,5.1h-9.6V16.2z"/>
	</defs>
	<clipPath id="SVGID_78_">
		<use xlink:href="#SVGID_77_"  style="overflow:visible;"/>
	</clipPath>
	<g class="st38">
		<defs>
			<rect id="SVGID_79_" x="-54" y="-440" width="320" height="568"/>
		</defs>
		<clipPath id="SVGID_80_">
			<use xlink:href="#SVGID_79_"  style="overflow:visible;"/>
		</clipPath>
		<rect x="34.6" y="-3.5" class="st39" width="19.7" height="25"/>
	</g>
</g>
<g>
	<defs>
		<polygon id="SVGID_81_" points="96.7,16.5 107.7,16.5 104.1,9 107.7,1.5 96.7,1.5 		"/>
	</defs>
	<clipPath id="SVGID_82_">
		<use xlink:href="#SVGID_81_"  style="overflow:visible;"/>
	</clipPath>
	<g class="st40">
		<defs>
			<rect id="SVGID_83_" x="-54" y="-440" width="320" height="568"/>
		</defs>
		<clipPath id="SVGID_84_">
			<use xlink:href="#SVGID_83_"  style="overflow:visible;"/>
		</clipPath>
		<rect x="91.7" y="-3.5" class="st41" width="21" height="25"/>
	</g>
</g>
</svg>
