<?xml version="1.0" encoding="UTF-8"?>
<svg width="249px" height="27px" viewBox="0 0 249 27" version="1.1" xmlns="http://www.w3.org/2000/svg" xmlns:xlink="http://www.w3.org/1999/xlink">
    <!-- Generator: Sketch 51.2 (57519) - http://www.bohemiancoding.com/sketch -->
    <title>STM_thestadotcom_DIGI_AP</title>
    <desc>Created with Sketch.</desc>
    <defs></defs>
    <g id="Page-1" stroke="none" stroke-width="1" fill="none" fill-rule="evenodd">
        <g id="STM_thestadotcom_DIGI_AP" fill-rule="nonzero">
            <g id="g14" transform="translate(237.000000, 0.000000)" fill="#FFFFFF">
                <polygon id="path16" points="8.46 0.002 9.981 0.002 2.338 13.064 9.98 26.138 8.458 26.138 0.848 13.064"></polygon>
            </g>
            <g id="g18" transform="translate(2.000000, 0.000000)" fill="#FFFFFF">
                <polygon id="path20" points="1.707 0.002 0.186 0.002 7.828 13.064 0.188 26.138 1.709 26.138 9.32 13.064"></polygon>
            </g>
            <g id="g22" fill="#176FC1">
                <polygon id="path24" points="2.187 26.137 9.827 13.063 2.186 0.002 0.75 0.002 8.443 13.07 0.753 26.137"></polygon>
            </g>
            <g id="g26" transform="translate(3.000000, 0.000000)" fill="#176FC1">
                <polygon id="path28" points="242.46 0.002 0.707 0.002 8.319 13.064 0.708 26.138 242.458 26.138 234.848 13.064"></polygon>
            </g>
            <g id="g30" transform="translate(239.000000, 0.000000)" fill="#176FC1">
                <polygon id="path32" points="7.98 26.137 0.338 13.063 7.981 0.001 9.416 0.001 1.724 13.069 9.414 26.136 7.98 26.136"></polygon>
            </g>
            <g id="g34" transform="translate(113.000000, 3.000000)" fill="#FFFFFF">
                <path d="M18.774,6.454 L18.273,6.543 C17.028,3.113 15.404,1.416 12.816,1.416 L11.656,1.416 L11.656,16.642 C11.656,17.609 12.361,18.247 14.748,18.292 L14.748,18.671 L4.901,18.671 L4.901,18.292 C7.266,18.204 7.971,17.608 7.971,16.642 L7.971,1.416 L6.765,1.416 C4.24,1.416 2.433,3.113 1.331,6.543 L0.83,6.454 L1.353,0.836 L18.271,0.836 L18.774,6.454" id="path36"></path>
            </g>
            <g id="g38" transform="translate(93.000000, 3.000000)" fill="#FFFFFF">
                <path d="M20.445,1.216 C17.867,1.626 17.398,2.589 17.398,5.05 L17.398,19.095 L15.988,19.095 L4.163,3.846 L4.118,3.846 L4.118,14.39 C4.118,16.848 4.661,17.933 7.461,18.29 L7.461,18.67 L0.116,18.67 L0.116,18.291 C2.698,17.905 3.301,16.849 3.301,14.39 L3.301,4.047 C3.301,2.539 2.493,1.293 0.116,1.216 L0.116,0.837 L6.553,0.837 L16.512,13.767 L16.581,13.767 L16.581,5.05 C16.581,2.598 15.852,1.576 13.102,1.216 L13.102,0.836 L20.447,0.836 L20.445,1.216" id="path40"></path>
            </g>
            <g id="g42" transform="translate(18.000000, 3.000000)" fill="#FFFFFF">
                <path d="M18.699,6.454 L18.198,6.543 C16.953,3.113 15.329,1.416 12.741,1.416 L11.58,1.416 L11.58,16.642 C11.58,17.609 12.286,18.247 14.672,18.292 L14.672,18.671 L4.826,18.671 L4.826,18.292 C7.191,18.204 7.896,17.608 7.896,16.642 L7.896,1.416 L6.69,1.416 C4.164,1.416 2.358,3.113 1.255,6.543 L0.755,6.454 L1.278,0.836 L18.196,0.836 L18.699,6.454" id="path44"></path>
            </g>
            <g id="g46" transform="translate(132.000000, 3.000000)" fill="#FFFFFF">
                <path d="M14.737,9.799 C14.737,3.602 12.817,0.97 9.484,0.97 C6.154,0.97 4.23,3.646 4.23,9.777 C4.23,16.041 6.149,18.582 9.484,18.582 C12.788,18.581 14.737,15.995 14.737,9.799 M18.647,9.732 C18.647,15.37 14.396,19.162 9.483,19.162 C4.406,19.162 0.319,15.486 0.319,9.821 C0.319,4.209 4.543,0.414 9.483,0.414 C14.532,0.413 18.647,4.068 18.647,9.732" id="path48"></path>
            </g>
            <g id="g50" transform="translate(74.000000, 3.000000)" fill="#FFFFFF">
                <path d="M15.069,9.799 C15.069,3.602 13.149,0.993 9.816,0.993 C6.485,0.993 4.563,3.646 4.563,9.777 C4.563,16.041 6.482,18.582 9.816,18.582 C13.119,18.581 15.068,15.995 15.069,9.799 M18.979,9.732 C18.979,15.37 14.729,19.162 9.815,19.162 C4.739,19.162 0.65,15.486 0.65,9.821 C0.65,4.209 4.875,0.414 9.815,0.414 C14.864,0.413 18.978,4.068 18.979,9.732" id="path52"></path>
            </g>
            <g id="g54" transform="translate(56.000000, 3.000000)" fill="#FFFFFF">
                <path d="M12.944,5.385 C12.944,3.013 11.715,1.416 8.282,1.416 L6.554,1.416 L6.554,9.665 L8.214,9.665 C11.466,9.665 12.944,8.045 12.944,5.385 M21.04,18.671 L14.717,18.671 C13.967,17.913 12.87,16.657 11.602,14.681 C9.055,10.711 8.6,10.244 7.1,10.244 L6.555,10.244 L6.555,16.641 C6.555,17.666 6.928,18.213 9.284,18.29 L9.284,18.67 L0.006,18.67 L0.006,18.291 C2.444,18.213 2.803,17.613 2.803,16.641 L2.803,2.843 C2.803,1.896 2.444,1.295 0.006,1.216 L0.006,0.837 L8.852,0.837 C13.9,0.837 16.742,2.441 16.742,5.341 C16.742,7.463 14.719,9.42 10.944,10.089 L10.944,10.134 C12.4,10.423 13.41,11.141 14.787,12.987 L16.333,15.061 C18.009,17.307 19.152,18.248 21.041,18.292 L21.04,18.671" id="path56"></path>
            </g>
            <g id="g58" transform="translate(37.000000, 3.000000)" fill="#FFFFFF">
                <path d="M14.639,9.799 C14.639,3.602 12.721,0.97 9.386,0.97 C6.056,0.97 4.134,3.646 4.134,9.777 C4.134,16.041 6.053,18.582 9.386,18.582 C12.689,18.581 14.639,15.995 14.639,9.799 M18.55,9.732 C18.55,15.37 14.3,19.162 9.385,19.162 C4.309,19.162 0.221,15.486 0.221,9.821 C0.221,4.209 4.445,0.414 9.385,0.414 C14.436,0.413 18.55,4.068 18.55,9.732" id="path60"></path>
            </g>
            <g id="g62" transform="translate(176.000000, 3.000000)" fill="#FFFFFF">
                <path d="M18.09,6.454 L17.589,6.543 C16.345,3.113 14.719,1.416 12.131,1.416 L10.97,1.416 L10.97,16.642 C10.97,17.609 11.494,18.247 13.883,18.292 L13.883,18.671 L4.219,18.671 L4.219,18.292 C6.583,18.204 7.288,17.608 7.288,16.642 L7.288,1.416 L6.081,1.416 C3.558,1.416 1.75,3.113 0.647,6.543 L0.147,6.454 L0.67,0.836 L17.588,0.836 L18.09,6.454" id="path64"></path>
            </g>
            <g id="g66" transform="translate(160.000000, 3.000000)" fill="#FFFFFF">
                <path d="M16.58,13.656 C16.58,16.933 13.761,19.162 8.712,19.162 C5.96,19.162 3.981,18.443 2.686,17.803 L1.799,18.872 L1.505,18.872 L0.957,12.897 L1.411,12.809 C3.14,16.776 4.936,18.581 8.757,18.581 C11.64,18.581 13.532,16.954 13.532,14.992 C13.532,13.053 12.519,12.186 8.961,11.023 L6.438,10.199 C3.721,9.311 1.526,7.855 1.526,5.028 C1.526,1.883 4.415,0.413 8.37,0.413 C10.781,0.413 12.6,1.148 13.601,1.749 L14.214,0.791 L14.556,0.791 L15.034,6.454 L14.556,6.544 C13.352,2.999 11.577,0.993 8.349,0.993 C5.938,0.993 4.596,2.308 4.596,3.802 C4.596,5.607 5.945,6.253 8.37,7.034 L11.349,7.993 C14.381,8.968 16.58,10.556 16.58,13.656" id="path68"></path>
            </g>
            <g id="g70" transform="translate(211.000000, 3.000000)" fill="#FFFFFF">
                <path d="M13.31,5.385 C13.31,3.013 12.081,1.416 8.648,1.416 L6.919,1.416 L6.919,9.665 L8.578,9.665 C11.833,9.665 13.31,8.045 13.31,5.385 M21.405,18.671 L15.083,18.671 C14.333,17.913 13.237,16.657 11.97,14.681 C9.422,10.711 8.967,10.244 7.467,10.244 L6.921,10.244 L6.921,16.641 C6.921,17.666 7.294,18.213 9.65,18.29 L9.65,18.67 L0.371,18.67 L0.371,18.291 C2.809,18.213 3.167,17.613 3.167,16.641 L3.167,2.865 C3.167,1.918 2.809,1.294 0.371,1.215 L0.371,0.837 L9.217,0.837 C14.266,0.837 17.109,2.441 17.109,5.341 C17.109,7.463 15.084,9.42 11.311,10.089 L11.311,10.134 C12.765,10.423 13.776,11.141 15.152,12.987 L16.699,15.061 C18.375,17.307 19.518,18.248 21.406,18.292 L21.406,18.671" id="path72"></path>
            </g>
            <g id="g74" transform="translate(191.000000, 3.000000)" fill="#FFFFFF">
                <path d="M11.754,11.537 L8.888,3.645 L8.774,3.645 L5.818,11.537 L11.754,11.537 Z M20.463,18.671 L11.162,18.671 L11.162,18.292 C13.064,18.197 13.713,17.92 13.709,17.2 C13.706,16.941 13.623,16.625 13.481,16.241 L11.935,12.051 L5.589,12.051 L4.794,14.057 C4.361,15.149 4.203,15.953 4.203,16.554 C4.203,17.623 4.861,18.093 6.431,18.292 L6.431,18.672 L0.224,18.672 L0.224,18.292 C1.997,17.959 2.982,16.893 4.088,14.102 L9.568,0.281 L11.365,0.281 L17.255,15.885 C17.848,17.452 18.367,18.01 20.462,18.294 L20.462,18.671 L20.463,18.671 Z" id="path76"></path>
            </g>
        </g>
    </g>
</svg>