<?xml version="1.0" encoding="utf-8"?>
<!-- Generator: Adobe Illustrator 21.1.0, SVG Export Plug-In . SVG Version: 6.00 Build 0)  -->
<svg version="1.1" id="Layer_1" xmlns="http://www.w3.org/2000/svg" xmlns:xlink="http://www.w3.org/1999/xlink" x="0px" y="0px"
	 viewBox="0 0 792 78" style="enable-background:new 0 0 792 78;" xml:space="preserve">
<g>
	<path d="M114.3,72.2H80.9v-2.5h1.7c2.2,0,3.5-1.1,3.5-3.9V11.4c0-2.8-1.3-3.9-3.5-3.9h-1.8V5h33.5v23.1h-2.2v-0.3
		c0-13.7-4.1-19.9-11.5-19.9h-5.5v27.9h1.4c4.2,0,6.1-4.1,6.1-12.8v-0.3h2.2v29.1h-2.2v-0.2c0-8.5-1.9-12.9-6.1-12.9h-1.4v30.4h5.2
		c7.3,0,11.8-7.3,11.8-19.9v-0.2h2.2V72.2z"/>
	<path d="M78.7,72.2H59v-2.5h1.6c2.2,0,3.6-1.1,3.6-3.9V39.4H49.9v26.4c0,2.8,1.4,3.9,3.6,3.9h1.7v2.5H35.6v-2.5h1.7
		c2.2,0,3.6-1.1,3.6-3.9V11.4c0-2.8-1.4-3.9-3.6-3.9h-1.7V5h19.7v2.5h-1.7c-2.2,0-3.6,1.1-3.6,3.9v24.5h14.3V11.4
		c0-2.8-1.4-3.9-3.6-3.9H59V5h19.6v2.5h-1.7c-2.2,0-3.6,1.1-3.6,3.9v54.5c0,2.8,1.4,3.9,3.6,3.9h1.7V72.2z"/>
	<path d="M34.5,28.2h-2.2V28c0-10.8-4-20.1-8.7-20.1h-2v57.9c0,2.8,1.4,3.9,3.6,3.9h2v2.5H7.1v-2.5H9c2.2,0,3.6-1.1,3.6-3.9V7.9
		h-1.7c-4.7,0-8.7,8.7-8.7,20.1v0.3H0V5h34.5V28.2z"/>
	<path d="M281.3,72.2h-33v-2.5h2.3c2.2,0,3.6-1,3.6-3.8V11.3c0-2.8-1.4-3.8-3.6-3.8h-1.8V5h19.5v2.5h-1.6c-2.2,0-3.6,1-3.6,3.8v58
		h4.8c8.8,0,11.2-10.3,11.2-19.9v-0.3h2.2V72.2z"/>
	<path d="M247.1,72.2H214l1.3-2.5h1c2.2,0,3.6-1,3.6-3.8V11.3c0-2.8-1.4-3.8-3.6-3.8h-1.8V5H234v2.5h-1.6c-2.2,0-3.6,1-3.6,3.8v58
		h4.8c8.8,0,11.2-10.3,11.2-20V49h2.2V72.2z"/>
	<path d="M187.8,7.5h-0.7c-3.2,0-4.8,0.6-5.9,6.1l-12,59.1h-3.7L158.1,34H158l-7.6,38.7h-3.7l-11.7-60.6c-0.7-3.9-1.8-4.6-5.2-4.6
		h-0.3V5h17.8v2.5H147c-2.6,0-3.2,0.9-3.2,2.7c0,0.4,0,1,0.1,1.5l7.5,41h0.2l4.8-27l-2.5-13.6c-0.6-3.4-1.4-4.6-4-4.6h-0.4V5h17.5
		v2.5h-0.3c-3.3,0-3.9,1.1-3.9,3.4c0,0.6,0.1,1.3,0.2,2.1l7.5,39.2h0.2l7.1-39.3c0.1-0.6,0.2-1.1,0.2-1.6c0-2.7-0.9-3.9-4.3-3.9
		h-0.5V5h14.8V7.5z"/>
	<path d="M215.6,72.2H197v-2.5h0.5c3.4,0,4.4-0.9,4.4-2.9c0-0.5-0.1-1.3-0.2-2l-1.6-8.9h-11.2l-1.6,8.9c-0.1,0.8-0.2,1.4-0.2,2
		c0,2.1,0.8,2.9,4.2,2.9h0.3v2.5h-14v-2.5h0.7c2.9,0,4.5-0.7,5.2-4.6L195,4.3h4.2l11.7,60.5c0.7,3.7,2.5,4.9,4.1,4.9h0.6V72.2z
		 M199.4,52.8L194.5,23h-0.2l-4.9,29.8H199.4z"/>
	<path d="M513.3,28.2h-2.2V28c0-10.8-4-20.1-8.7-20.1h-2v57.9c0,2.8,1.4,3.9,3.6,3.9h2v2.5h-20.2v-2.5h1.9c2.2,0,3.6-1.1,3.6-3.9
		V7.9h-1.7c-4.7,0-8.7,8.7-8.7,20.1v0.3h-2.2V5h34.5V28.2z"/>
	<path d="M475.9,72.2h-33.5v-2.5h1.7c2.2,0,3.5-1.1,3.5-3.9V11.4c0-2.8-1.3-3.9-3.5-3.9h-1.8V5h33.5v23.1h-2.2v-0.3
		c0-13.7-4.1-19.9-11.5-19.9h-5.5v27.9h1.4c4.2,0,6.2-4.1,6.2-12.8v-0.3h2.2v29.1h-2.2v-0.2c0-8.5-1.9-12.9-6.2-12.9h-1.4v30.4h5.2
		c7.3,0,11.8-7.3,11.8-19.9v-0.2h2.2V72.2z"/>
	<path d="M440.1,72.2h-33.5v-2.5h1.7c2.2,0,3.5-1.1,3.5-3.9V11.4c0-2.8-1.3-3.9-3.5-3.9h-1.8V5h33.5v23.1h-2.2v-0.3
		c0-13.7-4.1-19.9-11.5-19.9h-5.5v27.9h1.4c4.2,0,6.2-4.1,6.2-12.8v-0.3h2.2v29.1h-2.2v-0.2c0-8.5-1.9-12.9-6.2-12.9h-1.4v30.4h5.2
		c7.3,0,11.8-7.3,11.8-19.9v-0.2h2.2V72.2z"/>
	<path d="M364.6,28.2h-2.2V28c0-10.8-4-20.1-8.7-20.1h-2v57.9c0,2.8,1.4,3.9,3.6,3.9h2v2.5h-20.2v-2.5h1.9c2.2,0,3.6-1.1,3.6-3.9
		V7.9H341c-4.7,0-8.7,8.7-8.7,20.1v0.3h-2.2V5h34.5V28.2z"/>
	<path d="M330,55.9c0,11.9-7,16.8-15.3,16.8c-6,0-8.7-2-11.6-4l-1.6,3.5h-1.7V49.1h2.2v0.7c0,16.2,8,19.9,12,19.9
		c6.1,0,8.8-3.6,8.8-10.7c0-7.7-4.7-13.4-11.6-18.7c-6.2-4.8-11.9-10.7-11.9-20.5c0-10.1,6.1-15.4,13.4-15.4c6.1,0,8.9,2.5,10.5,3.9
		l1.6-3.3h1.6v23.2h-2.2v-0.7c0-12.6-3.7-20.2-11-20.2c-4.6,0-7.1,3.3-7.1,8.7c0,6.3,3.6,9.9,10.4,15.3
		C324.2,37.4,330,43.7,330,55.9"/>
	<path d="M406.1,63c0,5.6-2.1,9.7-7.5,9.7c-5.4,0-7.7-4.1-8-12.4L390,47.7c-0.3-6.6-2.8-8.4-6.5-8.4h-2.4v26.5
		c0,2.8,1.1,3.9,3.3,3.9h2.3v2.5h-20v-2.5h1.9c2.2,0,3.6-1.1,3.6-3.9V11.3c0-2.8-1.4-3.9-3.6-3.9h-1.9V5h18
		c10.8,0,17.6,5.7,17.6,16.3c0,11.1-7.5,15.3-14.2,16.6v0.2c5.5,0.6,10.4,4.8,10.7,11.1l0.7,14.7c0.1,2.9,0.5,3.8,1.8,3.8
		c1.6,0,2-1.3,2-5.6v-2.4h2.7V63z M392.9,21.4c0-10.5-4-13.5-9.6-13.5h-2.1v28.3h2.5C389.4,36.2,392.9,32.2,392.9,21.4"/>
	<path d="M772,72.2h-33l1.3-2.5h1c2.2,0,3.6-1,3.6-3.8V11.3c0-2.8-1.4-3.8-3.6-3.8h-1.8V5H759v2.5h-1.6c-2.2,0-3.6,1-3.6,3.8v58h4.8
		c8.9,0,11.2-10.3,11.2-19.9v-0.3h2.2V72.2z"/>
	<path d="M783.5,68.1c0,2.5-1.8,4.6-3.8,4.6c-2,0-3.8-2.1-3.8-4.6c0-2.5,1.8-4.5,3.8-4.5C781.6,63.5,783.5,65.6,783.5,68.1"/>
	<path d="M706,7.5h-1.7c-2,0-3.7,1.6-3.7,4.9v60.1h-3.2l-20.5-53h-0.2v45.3c0,3.3,1.6,4.9,3.7,4.9h1.6v2.5h-13.9v-2.5h1.9
		c2.1,0,3.7-1.6,3.7-4.9V11.7c0-2.4-0.9-4.2-3.2-4.2h-2.4V5h12.6l16.6,43.3h0.2V12.4c0-3.3-1.6-4.9-3.7-4.9h-1.7V5H706V7.5z"/>
	<path d="M630.6,7.5h-3.4c-2,0-3.3,1.8-3.3,4.9v44.8c0,8.9-2.9,15.5-12.3,15.5c-10,0-15.8-6.3-15.8-15.5V11.3c0-2.8-1.3-3.9-3.5-3.9
		h-1.8V5h19.2v2.5h-1.2c-2.2,0-3.5,1.1-3.5,3.9v46.4c0,7.6,2.9,11.9,7.9,11.9c5,0,8.1-3.7,8.1-11.9V12.4c0-3.1-1.2-4.9-3.2-4.9h-1.9
		V5h14.8V7.5z"/>
	<path d="M556.4,7.5h-1.6c-2.2,0-3.6,1.1-3.6,3.9v46.9c0,10.5-6.4,14.5-14.7,14.5c-5.9,0-11.8-4.9-11.8-14.5c0-5.1,3.1-7.3,5.6-7.3
		c2.6,0,4.4,1.9,4.4,5c0,4.1-2.3,5.8-5.3,6.2c0,3.5,2.6,7.5,7.1,7.5c4.3,0,5.7-2.4,5.7-9.7V11.3c0-2.8-1.3-3.9-3.5-3.9h-1.7V5h19.5
		V7.5z"/>
	<path d="M740.6,72.2h-18.6v-2.5h0.5c3.4,0,4.4-0.9,4.4-2.9c0-0.5-0.1-1.3-0.3-2l-1.5-8.9h-11.2l-1.6,8.9c-0.1,0.8-0.2,1.4-0.2,2
		c0,2.1,0.8,2.9,4.2,2.9h0.3v2.5h-14v-2.5h0.7c2.9,0,4.5-0.7,5.2-4.6L720,4.3h4.2l11.7,60.5c0.7,3.7,2.5,4.9,4.1,4.9h0.6V72.2z
		 M724.4,52.8L719.5,23h-0.2l-4.9,29.8H724.4z"/>
	<path d="M668,63c0,5.6-2.1,9.7-7.5,9.7s-7.7-4.1-8-12.4l-0.6-12.5c-0.3-6.7-2.8-8.4-6.5-8.4H643v26.5c0,2.8,1.1,3.9,3.3,3.9h2.3
		v2.5h-20v-2.5h1.9c2.2,0,3.6-1.1,3.6-3.9V11.3c0-2.8-1.4-3.9-3.6-3.9h-1.9V5h18c10.9,0,17.6,5.7,17.6,16.3
		c0,11.1-7.5,15.3-14.2,16.6v0.2c5.5,0.6,10.4,4.7,10.7,11.1l0.7,14.7c0.1,2.9,0.5,3.8,1.8,3.8c1.6,0,2-1.3,2-5.6v-2.4h2.7V63z
		 M654.8,21.4c0-10.5-4-13.5-9.6-13.5H643v28.3h2.5C651.3,36.2,654.8,32.2,654.8,21.4"/>
	<path d="M590.6,38.4c0,19.1-6.1,34.3-17.3,34.3c-10.9,0-17.1-15.2-17.1-34.3c0-19.1,5.9-34,17.1-34
		C584.3,4.5,590.6,19.3,590.6,38.4 M580.4,54.4V22.6c0-11.6-2.5-15.1-7.1-15.1c-4.6,0-7,3.3-7,15.3v31.5c0,11.2,2.1,15.4,7,15.4
		C578,69.7,580.4,65.3,580.4,54.4"/>
</g>
</svg>
